<?xml version="1.0" encoding="UTF-8"?>
<svg id="Layer_1" data-name="Layer 1" xmlns="http://www.w3.org/2000/svg" xmlns:xlink="http://www.w3.org/1999/xlink" viewBox="0 0 1080 1080">
  <defs>
    <style>
      .cls-1 {
        fill: url(#linear-gradient-2);
      }

      .cls-2 {
        fill: url(#linear-gradient);
      }
    </style>
    <linearGradient id="linear-gradient" x1="482.05" y1="580.1" x2="981.55" y2="764.34" gradientUnits="userSpaceOnUse">
      <stop offset="0" stop-color="#3375b1"/>
      <stop offset="1" stop-color="#03045a"/>
    </linearGradient>
    <linearGradient id="linear-gradient-2" x1="466.46" y1="622.37" x2="965.96" y2="806.61" xlink:href="#linear-gradient"/>
  </defs>
  <path class="cls-2" d="M513.01,330.96c-143.86,0-260.53,116.68-260.53,260.53s116.68,260.59,260.53,260.59,260.59-116.68,260.59-260.59-116.68-260.53-260.59-260.53ZM513.01,730.86c-76.94,0-139.31-62.37-139.31-139.36s62.37-139.31,139.31-139.31,139.36,62.37,139.36,139.31-62.37,139.36-139.36,139.36Z"/>
  <path class="cls-1" d="M853.85,681.71c-46.12,0-83.53,37.41-83.53,83.53s37.41,83.55,83.53,83.55,83.55-37.41,83.55-83.55-37.41-83.53-83.55-83.53ZM853.85,809.93c-24.67,0-44.67-20-44.67-44.68s20-44.67,44.67-44.67,44.68,20,44.68,44.67-20,44.68-44.68,44.68Z"/>
</svg>